<svg width="208" height="156" viewBox="0 0 208 156" fill="none" xmlns="http://www.w3.org/2000/svg">
<path d="M63.7979 118.891C63.481 119.948 63.2043 120.844 62.9418 121.742C61.1989 127.683 59.4655 133.627 57.7132 139.565C57.427 140.535 57.6257 140.438 56.4622 140.444C55.6794 140.448 54.8967 140.444 54.1352 140.444C54.0098 140.127 54.1305 139.905 54.1967 139.676C56.6041 131.152 59.0115 122.628 61.4212 114.103C61.4543 113.986 61.4969 113.871 61.5205 113.753C61.5797 113.444 61.7547 113.309 62.1141 113.312C63.585 113.325 65.0559 113.325 66.5269 113.316C66.9005 113.314 67.0329 113.462 67.0353 113.792C67.0377 114.662 67.0613 115.53 67.0755 116.4C67.1748 122.195 67.2765 127.989 67.3758 133.784C67.3806 134.025 67.3758 134.6 67.3758 134.6C67.3758 134.6 70.3177 125.34 71.5876 121.081C72.2876 118.73 72.9899 116.381 73.6947 114.032C73.9051 113.331 73.9099 113.329 74.7044 113.327C76.0713 113.327 77.4358 113.327 78.8027 113.331C79.6422 113.333 79.6469 113.335 79.6517 114.14C79.6587 116.218 79.6658 118.295 79.6658 120.37C79.6682 126.649 79.6682 132.927 79.6682 139.206C79.6682 140.205 79.7202 140.116 78.6963 140.12C78.0932 140.122 77.4878 140.127 76.8848 140.12C76.2061 140.111 76.2061 140.107 76.1919 139.459C76.1895 139.289 76.1919 139.122 76.1919 138.952C76.1919 132.529 76.1943 126.106 76.1919 119.683C76.1919 119.432 76.2416 119.174 76.1257 118.88C75.9412 119.097 75.9081 119.311 75.8466 119.513C73.7585 126.343 71.668 133.173 69.5775 140.003C69.542 140.118 69.4924 140.233 69.4734 140.351C69.412 140.746 69.1447 140.84 68.7474 140.836C67.3806 140.823 66.0161 140.836 64.6492 140.829C63.9327 140.825 63.9185 140.812 63.9185 140.118C63.9137 137.388 63.9185 134.66 63.9185 131.931C63.9185 127.898 63.9185 123.865 63.9185 119.833C63.9185 119.58 63.9587 119.319 63.8026 118.899L63.7979 118.891Z" fill="#96C34E"/>
<path d="M140.813 134.256C140.79 133.556 140.837 132.858 140.927 132.162C140.96 131.907 141.045 131.753 141.352 131.759C142.376 131.781 143.4 131.798 144.424 131.816C144.803 131.822 144.923 131.959 144.829 132.318C144.576 133.284 144.439 134.265 144.564 135.261C144.67 136.099 144.982 136.856 145.647 137.458C147.004 138.689 148.899 138.426 149.807 136.89C150.01 136.547 150.15 136.183 150.23 135.803C150.452 134.746 150.419 133.689 150.199 132.636C149.913 131.266 149.093 130.195 147.908 129.36C147.033 128.742 146.122 128.172 145.231 127.574C142.991 126.067 141.591 124.053 141.028 121.564C140.6 119.679 140.764 117.812 141.494 116.007C142.835 112.701 145.983 112.17 148.57 112.833C151.221 113.512 152.654 115.254 153.243 117.645C153.493 118.667 153.479 119.702 153.278 120.738C153.217 121.053 153.075 121.208 152.715 121.201C151.98 121.19 151.245 121.195 150.509 121.195C150.202 121.195 150.098 121.062 150.145 120.784C150.213 120.379 150.263 119.97 150.308 119.563C150.351 119.176 150.332 118.787 150.242 118.41C150.024 117.486 149.542 116.72 148.494 116.438C147.442 116.153 146.439 116.329 145.642 117.044C144.45 118.115 144.259 119.435 144.684 120.857C145.006 121.932 145.687 122.815 146.51 123.613C147.291 124.37 148.184 125.005 149.069 125.649C149.75 126.143 150.422 126.643 151.051 127.194C153.47 129.308 154.208 131.957 153.952 134.913C153.832 136.305 153.389 137.61 152.557 138.791C150.251 142.061 145.337 142.461 142.525 139.605C141.36 138.42 140.939 136.964 140.818 135.416C140.79 135.031 140.813 134.643 140.813 134.256Z" fill="#96C34E"/>
<path d="M102.962 140.553C101.862 140.662 100.762 140.664 99.6628 140.553C99.5091 140.331 99.5824 140.081 99.5824 139.846C99.5777 132.897 99.5777 125.947 99.58 119C99.58 118.049 99.5801 118.047 100.576 117.884C101.068 117.803 101.543 117.658 102.035 117.586C102.966 117.451 103.045 117.503 103.045 118.347C103.045 124.355 103.045 130.363 103.045 136.37C103.045 137.602 103.045 138.83 103.045 140.062C103.045 140.227 103.087 140.401 102.962 140.551V140.553Z" fill="#96C34E"/>
<path d="M102.962 140.553C102.957 137.249 102.952 133.945 102.95 130.641C102.948 126.687 102.945 122.732 102.943 118.776C102.943 118.582 102.938 118.391 102.938 118.197C102.941 117.866 102.775 117.797 102.435 117.858C101.666 117.997 100.928 118.282 100.126 118.277C99.8474 118.277 99.7056 118.454 99.6937 118.704C99.6819 118.945 99.6795 119.187 99.6795 119.426C99.6772 126.154 99.6748 132.881 99.6724 139.611C99.6724 139.924 99.6654 140.238 99.6606 140.551C99.4478 140.266 99.5424 139.942 99.5424 139.635C99.5424 132.248 99.5471 124.859 99.5518 117.473C99.5518 116.218 99.6346 116.368 98.3079 116.357C97.5465 116.35 96.785 116.363 96.0235 116.352C95.411 116.344 95.3874 116.324 95.3756 115.789C95.3637 115.211 95.3661 114.63 95.3826 114.051C95.3992 113.529 95.4205 113.518 95.9597 113.494C96.1157 113.488 96.2742 113.492 96.4326 113.492C99.663 113.49 102.893 113.488 106.124 113.486C106.308 113.486 106.493 113.497 106.675 113.486C107.063 113.464 107.256 113.599 107.247 113.982C107.233 114.608 107.233 115.237 107.252 115.865C107.261 116.246 107.072 116.37 106.682 116.366C105.842 116.352 105 116.359 104.161 116.363C103.064 116.368 103.073 116.261 103.075 117.333C103.08 121.438 103.085 125.542 103.087 129.647C103.087 133.003 103.09 136.359 103.083 139.713C103.083 139.996 103.17 140.294 102.964 140.555L102.962 140.553Z" fill="#96C34E"/>
<path d="M134.362 128.508C134.055 128.462 133.742 128.434 133.433 128.397C133.428 128.36 133.426 128.325 133.421 128.288C133.537 128.242 133.65 128.19 133.771 128.151C136.043 127.39 137.595 125.297 137.517 123.033C137.467 121.562 137.507 120.088 137.505 118.615C137.505 118.254 137.488 117.893 137.403 117.536C136.807 115.039 134.587 113.358 131.765 113.319C129.796 113.29 127.828 113.31 125.858 113.314C124.761 113.317 124.858 113.23 124.858 114.267C124.855 122.811 124.855 131.355 124.855 139.901C124.855 140.071 124.863 140.238 124.858 140.408C124.851 140.667 124.96 140.819 125.267 140.819C126.158 140.817 127.052 140.819 127.944 140.817C128.202 140.817 128.325 140.693 128.325 140.458C128.325 140.264 128.329 140.071 128.329 139.879C128.329 136.91 128.329 133.941 128.329 130.972C128.329 130.778 128.344 130.585 128.329 130.393C128.301 130.032 128.448 129.865 128.869 129.876C129.524 129.895 130.181 129.876 130.838 129.88C133.071 129.895 134.416 131.124 134.438 133.178C134.45 134.361 134.438 135.542 134.44 136.725C134.44 137.909 134.433 139.092 134.445 140.273C134.45 140.778 134.49 140.808 135.029 140.821C135.632 140.834 136.237 140.832 136.84 140.821C137.488 140.81 137.503 140.804 137.503 140.206C137.507 137.406 137.521 134.607 137.498 131.805C137.484 130.113 136.19 128.782 134.36 128.505L134.362 128.508ZM129.003 126.554C128.348 126.546 128.336 126.537 128.332 125.948C128.325 124.379 128.329 122.811 128.329 121.243C128.329 119.698 128.325 118.154 128.329 116.61C128.332 115.946 128.341 115.944 129.084 115.938C129.713 115.933 130.344 115.927 130.973 115.942C133.069 115.998 134.752 117.543 134.797 119.474C134.826 120.655 134.823 121.839 134.797 123.022C134.755 124.921 133.116 126.457 131.049 126.544C130.368 126.572 129.684 126.563 129.001 126.554H129.003Z" fill="#96C34E"/>
<path d="M122.202 118.762C122.202 118.593 122.197 118.425 122.19 118.256C122.091 115.893 120.35 113.914 117.867 113.309C116.959 113.088 116.041 113.183 115.126 113.168C114.097 113.148 113.149 113.425 112.293 113.929C110.505 114.984 109.557 116.494 109.55 118.46C109.538 121.331 109.548 124.205 109.548 127.076H109.538C109.538 129.923 109.559 132.772 109.531 135.62C109.507 138.093 111.324 140.207 113.828 140.803C115.039 141.09 116.273 141.068 117.5 140.877C118.619 140.703 119.581 140.235 120.4 139.513C121.667 138.393 122.209 137.016 122.206 135.413C122.195 129.862 122.202 124.311 122.202 118.76V118.762ZM119.09 135.296C119.09 136.351 118.61 137.166 117.649 137.719C115.687 138.845 113.156 137.623 113.024 135.498C113.01 135.256 113.012 135.015 113.012 134.774C113.012 129.612 113.01 124.45 113.01 119.287C113.01 118.997 113.005 118.706 113.038 118.419C113.196 117.048 114.54 115.963 116.06 115.961C117.567 115.961 118.919 117.066 119.068 118.432C119.099 118.719 119.094 119.01 119.094 119.3C119.094 121.882 119.094 124.461 119.094 127.043H119.09C119.09 129.793 119.087 132.542 119.09 135.293V135.296Z" fill="#96C34E"/>
<path d="M94.0321 135.128C94.0321 129.843 94.0274 124.555 94.0227 119.27C94.0227 119.028 94.0014 118.789 93.9919 118.547C94.1291 116.174 92.3767 113.99 89.8133 113.344C88.6545 113.053 87.4674 113.107 86.3039 113.216C83.9911 113.434 81.9762 115.189 81.5553 117.244C81.4134 117.614 81.3779 117.997 81.3779 118.386C81.3779 124.181 81.3567 129.973 81.3803 135.768C81.3921 138.335 83.3833 140.431 86.1265 140.899C86.9897 141.047 87.8576 141.034 88.7184 140.973C91.2842 140.788 93.3534 139.102 93.9139 136.79C94.0463 136.242 94.0345 135.687 94.0345 135.133L94.0321 135.128ZM90.9649 125.136C90.9602 128.394 90.9626 131.65 90.9649 134.909C90.9649 135.296 90.9531 135.679 90.8396 136.057C90.4423 137.399 89.1062 138.245 87.5596 138.121C86.1336 138.006 84.9488 136.873 84.8519 135.524C84.8353 135.309 84.84 135.089 84.84 134.874C84.8377 129.638 84.8353 124.401 84.8353 119.165C84.8353 118.828 84.8566 118.491 84.8661 118.152C85.0813 117.823 85.1735 117.438 85.4431 117.131C86.1927 116.277 87.1434 115.848 88.34 116.024C89.591 116.209 90.4068 116.899 90.8136 117.999C90.8798 118.182 90.9318 118.367 90.991 118.552C90.9815 120.746 90.9673 122.943 90.9649 125.138V125.136Z" fill="#96C34E"/>
<path d="M153.233 102.584C153.321 96.1439 153.271 89.7012 153.276 83.2606C153.276 81.403 153.257 79.5455 153.245 77.6879C153.259 77.3268 153.269 76.9658 153.285 76.6069C153.292 76.4546 153.285 76.124 153.285 76.124C153.285 76.124 152.975 76.1175 152.777 76.124C152.566 76.1327 152.358 76.124 152.148 76.124C149.393 76.1262 146.638 76.1349 143.883 76.1327C131.524 76.1283 119.166 76.1218 106.809 76.1218H105.826C105.826 76.1218 105.788 78.993 105.769 80.3655C105.764 80.7592 105.769 81.1616 105.769 81.1616C105.769 81.1616 106.204 81.1594 106.634 81.1616C106.793 81.1616 106.949 81.1616 107.107 81.1616C113.301 81.1616 119.497 81.1616 125.69 81.1638C126.026 81.1638 126.91 81.2029 126.91 81.2029C126.865 81.2029 126.532 81.9816 126.501 82.0404C126.267 82.4841 126.012 82.8887 125.669 83.2693C124.002 85.1116 121.452 86.4798 119.121 87.4717C116.988 88.3809 112.012 89.3205 111.806 89.3466C109.706 89.6163 107.599 89.7882 105.476 89.7403C106.197 91.4956 106.916 93.2532 107.639 95.0085C108.446 96.9661 109.257 98.9237 110.066 100.881C110.333 101.527 110.617 103.339 110.617 103.339C110.617 103.339 110.825 103.368 110.948 103.365C111.766 103.341 112.584 103.3 113.4 103.244C113.812 103.215 114.225 103.185 114.637 103.148C115.027 103.115 117.749 102.854 118.44 102.772C119.163 102.687 119.882 102.578 120.601 102.476C125.447 101.799 130.15 100.657 134.655 98.8628C134.908 98.7628 135.53 98.5518 135.53 98.5518C135.53 98.5518 135.542 99.126 135.542 99.3609C135.549 100.47 135.542 101.58 135.547 102.691C135.547 103.113 135.547 103.561 135.547 103.561C135.547 103.561 136.01 103.561 136.497 103.561C141.721 103.561 146.943 103.561 152.167 103.561C152.791 103.561 153.238 103.561 153.238 103.561C153.238 103.561 153.231 103.074 153.238 102.584H153.233Z" fill="#96C34E"/>
<g filter="url(#filter0_d_165_934)">
<path d="M106.225 90.5275C106.126 90.2795 105.225 87.9543 105.225 87.9543C105.215 87.9303 104.537 88.0043 104.485 88.0065C102.933 88.1022 101.349 87.9695 99.8071 87.7998C98.2652 87.6302 96.7044 87.3605 95.1933 86.9776C94.8055 86.8798 94.42 86.7732 94.0369 86.6601C90.2768 85.5486 86.8762 83.8541 84.1992 81.1352C79.628 76.487 78.7412 71.0927 81.7138 65.4504C83.6175 61.8375 86.7863 59.4165 90.7403 57.8178C94.4673 56.3105 98.3976 55.6101 102.434 55.4034C106.71 55.1859 110.936 55.5905 115.084 56.5649C117.479 57.1283 119.837 57.7982 121.954 59.0315C124.226 60.3562 126.047 62.0506 127.038 64.3976C127.182 64.7369 127.301 65.0327 127.301 65.0327L153.238 65.0567C153.316 65.061 153.129 63.8799 153.098 63.7451C152.897 62.8902 152.633 62.0506 152.301 61.2306C151.649 59.6101 150.745 58.0788 149.653 56.6759C149.331 56.2626 148.993 55.8602 148.641 55.4687C144.448 50.8139 139.144 47.5425 133.007 45.5436C124.425 42.7485 115.488 41.5913 106.41 41.3455C101.782 41.2194 97.1703 41.4565 92.5778 42.022C88.1698 42.5636 83.8327 43.3945 79.602 44.6626C75.0072 46.0395 70.637 47.8296 66.735 50.505C60.0756 55.0685 55.6818 60.937 54.3386 68.5804C53.7994 71.6495 53.8632 74.6751 54.8281 77.6811C56.4031 82.5882 59.3662 86.6731 63.4195 90.1185C67.5036 93.59 72.245 96.0893 77.3933 97.9599C83.958 100.344 90.9603 101.403 97.9885 101.625C102.172 101.755 106.367 101.762 110.553 101.729C110.553 101.729 107.566 93.9011 106.223 90.534L106.225 90.5275Z" fill="#96C34E"/>
</g>
<defs>
<filter id="filter0_d_165_934" x="0" y="-12.6875" width="207.257" height="168.434" filterUnits="userSpaceOnUse" color-interpolation-filters="sRGB">
<feFlood flood-opacity="0" result="BackgroundImageFix"/>
<feColorMatrix in="SourceAlpha" type="matrix" values="0 0 0 0 0 0 0 0 0 0 0 0 0 0 0 0 0 0 127 0" result="hardAlpha"/>
<feOffset/>
<feGaussianBlur stdDeviation="27"/>
<feColorMatrix type="matrix" values="0 0 0 0 0 0 0 0 0 0 0 0 0 0 0 0 0 0 0.8 0"/>
<feBlend mode="normal" in2="BackgroundImageFix" result="effect1_dropShadow_165_934"/>
<feBlend mode="normal" in="SourceGraphic" in2="effect1_dropShadow_165_934" result="shape"/>
</filter>
</defs>
</svg>
