<svg width="30" height="34" viewBox="0 0 30 34" fill="none" xmlns="http://www.w3.org/2000/svg">
<path d="M4 15.5V31.5L11 27.5L19 31.5L26 27.5V11.5L19 15.5L11 11.5L4 15.5Z" stroke="#96C34E" stroke-width="2" stroke-linecap="round" stroke-linejoin="round"/>
<path d="M11 11.5V27.5" stroke="#96C34E" stroke-width="2" stroke-linecap="round" stroke-linejoin="round"/>
<path d="M19 15.5V31.5" stroke="#96C34E" stroke-width="2" stroke-linecap="round" stroke-linejoin="round"/>
<g clip-path="url(#clip0_165_1123)">
<path d="M24 10.5C24 17.5 15 23.5 15 23.5C15 23.5 6 17.5 6 10.5C6 8.11305 6.94821 5.82387 8.63604 4.13604C10.3239 2.44821 12.6131 1.5 15 1.5C17.3869 1.5 19.6761 2.44821 21.364 4.13604C23.0518 5.82387 24 8.11305 24 10.5Z" fill="#566343" stroke="#96C34E" stroke-width="2" stroke-linecap="round" stroke-linejoin="round"/>
<path d="M15 13.5C16.6569 13.5 18 12.1569 18 10.5C18 8.84315 16.6569 7.5 15 7.5C13.3431 7.5 12 8.84315 12 10.5C12 12.1569 13.3431 13.5 15 13.5Z" stroke="#96C34E" stroke-width="2" stroke-linecap="round" stroke-linejoin="round"/>
</g>
<defs>
<clipPath id="clip0_165_1123">
<rect width="24" height="24" fill="white" transform="translate(3 0.5)"/>
</clipPath>
</defs>
</svg>
