<svg width="30" height="30" viewBox="0 0 30 30" fill="none" xmlns="http://www.w3.org/2000/svg">
<path d="M28.4992 21.7147V25.7793C28.5007 26.1566 28.4233 26.5301 28.2718 26.8758C28.1203 27.2216 27.8982 27.5319 27.6196 27.787C27.341 28.0421 27.0121 28.2363 26.6539 28.3572C26.2958 28.4781 25.9162 28.523 25.5397 28.489C21.3623 28.036 17.3496 26.6114 13.824 24.3296C10.5439 22.2494 7.763 19.474 5.67871 16.2004C3.38441 12.6658 1.95663 8.64161 1.51102 4.45373C1.47709 4.07907 1.52171 3.70146 1.64202 3.34495C1.76234 2.98843 1.95571 2.66083 2.20984 2.38299C2.46397 2.10515 2.77328 1.88316 3.11808 1.73117C3.46288 1.57917 3.83561 1.50049 4.21255 1.50013H8.28521C8.94404 1.49366 9.58274 1.7265 10.0823 2.15525C10.5818 2.584 10.9081 3.17941 11.0003 3.8305C11.1722 5.13125 11.491 6.40843 11.9506 7.63766C12.1332 8.1226 12.1728 8.64963 12.0645 9.1563C11.9562 9.66297 11.7047 10.128 11.3397 10.4964L9.61561 12.2171C11.5482 15.6091 14.3622 18.4176 17.7609 20.3463L19.485 18.6256C19.8541 18.2613 20.3201 18.0103 20.8278 17.9022C21.3355 17.7942 21.8635 17.8336 22.3494 18.0159C23.5811 18.4746 24.8608 18.7928 26.1642 18.9643C26.8236 19.0572 27.4259 19.3887 27.8564 19.8958C28.2869 20.4029 28.5157 21.0502 28.4992 21.7147Z" stroke="#96C34E" stroke-width="2" stroke-linecap="round" stroke-linejoin="round"/>
</svg>
