<svg width="30" height="30" viewBox="0 0 30 30" fill="none" xmlns="http://www.w3.org/2000/svg">
<g clip-path="url(#clip0_383_19)">
<path d="M15 30C6.72875 30 0 23.2713 0 15C0 6.72875 6.72875 0 15 0C23.2713 0 30 6.72875 30 15C30 23.2713 23.2713 30 15 30ZM15 1.25C7.41875 1.25 1.25 7.41875 1.25 15C1.25 22.5813 7.41875 28.75 15 28.75C22.5813 28.75 28.75 22.5813 28.75 15C28.75 7.41875 22.5813 1.25 15 1.25Z" fill="#96C34E"/>
<path d="M11.8752 22.5004C11.7952 22.5004 11.7127 22.4854 11.6364 22.4529C11.4027 22.3567 11.2502 22.1279 11.2502 21.8754V18.1254C11.2502 17.9592 11.3164 17.8004 11.4327 17.6829L14.3827 14.7329L9.68393 17.4167C9.48268 17.5317 9.23518 17.5254 9.03768 17.4004L5.28768 15.0092C5.08893 14.8829 4.97893 14.6554 5.00143 14.4217C5.02518 14.1879 5.17768 13.9867 5.39518 13.9004L21.6452 7.54165C21.8589 7.46165 22.0952 7.4979 22.2702 7.64165C22.4464 7.7854 22.5289 8.0129 22.4889 8.23665L19.9889 21.9867C19.9539 22.1804 19.8289 22.3467 19.6527 22.4342C19.4764 22.5217 19.2689 22.5217 19.0939 22.4342L14.4964 20.1354L12.3152 22.3167C12.1977 22.4367 12.0377 22.5004 11.8752 22.5004V22.5004ZM14.3752 18.7504C14.4702 18.7504 14.5652 18.7717 14.6552 18.8167L18.9089 20.9442L21.0602 9.1154L6.99768 14.6179L9.39393 16.1454L17.8152 11.3329C18.0877 11.1792 18.4327 11.2479 18.6227 11.4954C18.8127 11.7442 18.7889 12.0954 18.5677 12.3167L12.5002 18.3842V20.3667L13.9327 18.9342C14.0527 18.8129 14.2127 18.7504 14.3752 18.7504V18.7504Z" fill="#96C34E"/>
</g>
<defs>
<clipPath id="clip0_383_19">
<rect width="30" height="30" fill="white"/>
</clipPath>
</defs>
</svg>
